<svg id="Hatching" xmlns="http://www.w3.org/2000/svg" width="256" height="256" viewBox="0 0 256 256">
  <title>hatching-horizontal</title>
  <g>
    <line x1="112.32" y1="-143.52" x2="399.04" y2="143.2" style="fill: none;stroke: #fff;stroke-miterlimit: 10;stroke-width: 8px"/>
    <line x1="103.79" y1="-134.99" x2="390.51" y2="151.73" style="fill: none;stroke: #fff;stroke-miterlimit: 10;stroke-width: 8px"/>
    <line x1="95.25" y1="-126.45" x2="381.97" y2="160.27" style="fill: none;stroke: #fff;stroke-miterlimit: 10;stroke-width: 8px"/>
    <line x1="86.72" y1="-117.92" x2="373.44" y2="168.8" style="fill: none;stroke: #fff;stroke-miterlimit: 10;stroke-width: 8px"/>
    <line x1="78.19" y1="-109.39" x2="364.91" y2="177.33" style="fill: none;stroke: #fff;stroke-miterlimit: 10;stroke-width: 8px"/>
    <line x1="69.65" y1="-100.85" x2="356.37" y2="185.87" style="fill: none;stroke: #fff;stroke-miterlimit: 10;stroke-width: 8px"/>
    <line x1="61.12" y1="-92.32" x2="347.84" y2="194.4" style="fill: none;stroke: #fff;stroke-miterlimit: 10;stroke-width: 8px"/>
    <line x1="52.59" y1="-83.79" x2="339.31" y2="202.93" style="fill: none;stroke: #fff;stroke-miterlimit: 10;stroke-width: 8px"/>
    <line x1="44.05" y1="-75.25" x2="330.77" y2="211.47" style="fill: none;stroke: #fff;stroke-miterlimit: 10;stroke-width: 8px"/>
    <line x1="35.52" y1="-66.72" x2="322.24" y2="220" style="fill: none;stroke: #fff;stroke-miterlimit: 10;stroke-width: 8px"/>
    <line x1="26.99" y1="-58.19" x2="313.71" y2="228.53" style="fill: none;stroke: #fff;stroke-miterlimit: 10;stroke-width: 8px"/>
    <line x1="18.45" y1="-49.65" x2="305.17" y2="237.07" style="fill: none;stroke: #fff;stroke-miterlimit: 10;stroke-width: 8px"/>
    <line x1="9.92" y1="-41.12" x2="296.64" y2="245.6" style="fill: none;stroke: #fff;stroke-miterlimit: 10;stroke-width: 8px"/>
    <line x1="1.39" y1="-32.59" x2="288.11" y2="254.13" style="fill: none;stroke: #fff;stroke-miterlimit: 10;stroke-width: 8px"/>
    <line x1="-7.15" y1="-24.05" x2="279.57" y2="262.67" style="fill: none;stroke: #fff;stroke-miterlimit: 10;stroke-width: 8px"/>
    <line x1="-15.68" y1="-15.52" x2="271.04" y2="271.2" style="fill: none;stroke: #fff;stroke-miterlimit: 10;stroke-width: 8px"/>
    <line x1="-24.21" y1="-6.99" x2="262.51" y2="279.73" style="fill: none;stroke: #fff;stroke-miterlimit: 10;stroke-width: 8px"/>
    <line x1="-32.75" y1="1.55" x2="253.97" y2="288.27" style="fill: none;stroke: #fff;stroke-miterlimit: 10;stroke-width: 8px"/>
    <line x1="-41.28" y1="10.08" x2="245.44" y2="296.8" style="fill: none;stroke: #fff;stroke-miterlimit: 10;stroke-width: 8px"/>
    <line x1="-49.81" y1="18.61" x2="236.91" y2="305.33" style="fill: none;stroke: #fff;stroke-miterlimit: 10;stroke-width: 8px"/>
    <line x1="-58.35" y1="27.15" x2="228.37" y2="313.87" style="fill: none;stroke: #fff;stroke-miterlimit: 10;stroke-width: 8px"/>
    <line x1="-66.88" y1="35.68" x2="219.84" y2="322.4" style="fill: none;stroke: #fff;stroke-miterlimit: 10;stroke-width: 8px"/>
    <line x1="-75.41" y1="44.21" x2="211.31" y2="330.93" style="fill: none;stroke: #fff;stroke-miterlimit: 10;stroke-width: 8px"/>
    <line x1="-83.95" y1="52.75" x2="202.77" y2="339.47" style="fill: none;stroke: #fff;stroke-miterlimit: 10;stroke-width: 8px"/>
    <line x1="-92.48" y1="61.28" x2="194.24" y2="348" style="fill: none;stroke: #fff;stroke-miterlimit: 10;stroke-width: 8px"/>
    <line x1="-101.01" y1="69.81" x2="185.71" y2="356.53" style="fill: none;stroke: #fff;stroke-miterlimit: 10;stroke-width: 8px"/>
    <line x1="-109.55" y1="78.35" x2="177.17" y2="365.07" style="fill: none;stroke: #fff;stroke-miterlimit: 10;stroke-width: 8px"/>
    <line x1="-118.08" y1="86.88" x2="168.64" y2="373.6" style="fill: none;stroke: #fff;stroke-miterlimit: 10;stroke-width: 8px"/>
    <line x1="-126.61" y1="95.41" x2="160.11" y2="382.13" style="fill: none;stroke: #fff;stroke-miterlimit: 10;stroke-width: 8px"/>
    <line x1="-135.15" y1="103.95" x2="151.57" y2="390.67" style="fill: none;stroke: #fff;stroke-miterlimit: 10;stroke-width: 8px"/>
    <line x1="-143.68" y1="112.48" x2="143.04" y2="399.2" style="fill: none;stroke: #fff;stroke-miterlimit: 10;stroke-width: 8px"/>
  </g>
  <rect width="256" height="256" style="fill: none"/>
</svg>
