<svg id="Hatching" xmlns="http://www.w3.org/2000/svg" width="256" height="256" viewBox="0 0 256 256">
  <title>hatching-vertical</title>
  <g>
    <line x1="112.32" y1="399.2" x2="399.04" y2="112.48" style="fill: none;stroke: #fff;stroke-miterlimit: 10;stroke-width: 8px"/>
    <line x1="103.79" y1="390.67" x2="390.51" y2="103.95" style="fill: none;stroke: #fff;stroke-miterlimit: 10;stroke-width: 8px"/>
    <line x1="95.25" y1="382.13" x2="381.97" y2="95.41" style="fill: none;stroke: #fff;stroke-miterlimit: 10;stroke-width: 8px"/>
    <line x1="86.72" y1="373.6" x2="373.44" y2="86.88" style="fill: none;stroke: #fff;stroke-miterlimit: 10;stroke-width: 8px"/>
    <line x1="78.19" y1="365.07" x2="364.91" y2="78.35" style="fill: none;stroke: #fff;stroke-miterlimit: 10;stroke-width: 8px"/>
    <line x1="69.65" y1="356.53" x2="356.37" y2="69.81" style="fill: none;stroke: #fff;stroke-miterlimit: 10;stroke-width: 8px"/>
    <line x1="61.12" y1="348" x2="347.84" y2="61.28" style="fill: none;stroke: #fff;stroke-miterlimit: 10;stroke-width: 8px"/>
    <line x1="52.59" y1="339.47" x2="339.31" y2="52.75" style="fill: none;stroke: #fff;stroke-miterlimit: 10;stroke-width: 8px"/>
    <line x1="44.05" y1="330.93" x2="330.77" y2="44.21" style="fill: none;stroke: #fff;stroke-miterlimit: 10;stroke-width: 8px"/>
    <line x1="35.52" y1="322.4" x2="322.24" y2="35.68" style="fill: none;stroke: #fff;stroke-miterlimit: 10;stroke-width: 8px"/>
    <line x1="26.99" y1="313.87" x2="313.71" y2="27.15" style="fill: none;stroke: #fff;stroke-miterlimit: 10;stroke-width: 8px"/>
    <line x1="18.45" y1="305.33" x2="305.17" y2="18.61" style="fill: none;stroke: #fff;stroke-miterlimit: 10;stroke-width: 8px"/>
    <line x1="9.92" y1="296.8" x2="296.64" y2="10.08" style="fill: none;stroke: #fff;stroke-miterlimit: 10;stroke-width: 8px"/>
    <line x1="1.39" y1="288.27" x2="288.11" y2="1.55" style="fill: none;stroke: #fff;stroke-miterlimit: 10;stroke-width: 8px"/>
    <line x1="-7.15" y1="279.73" x2="279.57" y2="-6.99" style="fill: none;stroke: #fff;stroke-miterlimit: 10;stroke-width: 8px"/>
    <line x1="-15.68" y1="271.2" x2="271.04" y2="-15.52" style="fill: none;stroke: #fff;stroke-miterlimit: 10;stroke-width: 8px"/>
    <line x1="-24.21" y1="262.67" x2="262.51" y2="-24.05" style="fill: none;stroke: #fff;stroke-miterlimit: 10;stroke-width: 8px"/>
    <line x1="-32.75" y1="254.13" x2="253.97" y2="-32.59" style="fill: none;stroke: #fff;stroke-miterlimit: 10;stroke-width: 8px"/>
    <line x1="-41.28" y1="245.6" x2="245.44" y2="-41.12" style="fill: none;stroke: #fff;stroke-miterlimit: 10;stroke-width: 8px"/>
    <line x1="-49.81" y1="237.07" x2="236.91" y2="-49.65" style="fill: none;stroke: #fff;stroke-miterlimit: 10;stroke-width: 8px"/>
    <line x1="-58.35" y1="228.53" x2="228.37" y2="-58.19" style="fill: none;stroke: #fff;stroke-miterlimit: 10;stroke-width: 8px"/>
    <line x1="-66.88" y1="220" x2="219.84" y2="-66.72" style="fill: none;stroke: #fff;stroke-miterlimit: 10;stroke-width: 8px"/>
    <line x1="-75.41" y1="211.47" x2="211.31" y2="-75.25" style="fill: none;stroke: #fff;stroke-miterlimit: 10;stroke-width: 8px"/>
    <line x1="-83.95" y1="202.93" x2="202.77" y2="-83.79" style="fill: none;stroke: #fff;stroke-miterlimit: 10;stroke-width: 8px"/>
    <line x1="-92.48" y1="194.4" x2="194.24" y2="-92.32" style="fill: none;stroke: #fff;stroke-miterlimit: 10;stroke-width: 8px"/>
    <line x1="-101.01" y1="185.87" x2="185.71" y2="-100.85" style="fill: none;stroke: #fff;stroke-miterlimit: 10;stroke-width: 8px"/>
    <line x1="-109.55" y1="177.33" x2="177.17" y2="-109.39" style="fill: none;stroke: #fff;stroke-miterlimit: 10;stroke-width: 8px"/>
    <line x1="-118.08" y1="168.8" x2="168.64" y2="-117.92" style="fill: none;stroke: #fff;stroke-miterlimit: 10;stroke-width: 8px"/>
    <line x1="-126.61" y1="160.27" x2="160.11" y2="-126.45" style="fill: none;stroke: #fff;stroke-miterlimit: 10;stroke-width: 8px"/>
    <line x1="-135.15" y1="151.73" x2="151.57" y2="-134.99" style="fill: none;stroke: #fff;stroke-miterlimit: 10;stroke-width: 8px"/>
    <line x1="-143.68" y1="143.2" x2="143.04" y2="-143.52" style="fill: none;stroke: #fff;stroke-miterlimit: 10;stroke-width: 8px"/>
  </g>
  <rect width="256" height="256" style="fill: none"/>
</svg>
